<?xml version="1.0" standalone="no"?>
<!DOCTYPE svg PUBLIC "-//W3C//DTD SVG 20010904//EN"
 "http://www.w3.org/TR/2001/REC-SVG-20010904/DTD/svg10.dtd">
<svg version="1.0" xmlns="http://www.w3.org/2000/svg"
 width="598.000000pt" height="228.000000pt" viewBox="0 0 598.000000 228.000000"
 preserveAspectRatio="xMidYMid meet">

<g transform="translate(0.000000,228.000000) scale(0.100000,-0.100000)"
fill="#000000" stroke="none">
<path d="M850 1570 c-88 -11 115 -19 900 -35 426 -8 803 -18 836 -21 70 -6 88
6 57 37 -19 19 -43 20 -884 22 -475 1 -884 0 -909 -3z"/>
<path d="M2948 1571 c-22 -6 -48 -33 -48 -49 0 -12 14 -13 83 -8 45 3 219 8
387 12 168 3 418 10 555 14 138 4 360 8 495 10 249 2 431 15 270 19 -158 4
-1731 6 -1742 2z"/>
<path d="M2765 1413 c4 -54 7 -106 7 -115 0 -10 3 -18 7 -18 8 0 21 119 21
192 0 32 -3 38 -21 38 -21 0 -21 -2 -14 -97z"/>
<path d="M782 955 c-105 -212 -192 -390 -192 -395 0 -6 19 -10 43 -10 l42 0
63 125 62 125 130 0 c95 0 132 -3 135 -12 3 -7 11 -62 18 -123 l12 -110 48 -3
c26 -2 47 1 47 5 0 5 -22 177 -50 383 -27 206 -50 380 -50 387 0 9 -17 13 -58
13 l-57 0 -193 -385z m252 118 c10 -87 20 -166 23 -175 4 -16 -6 -18 -106 -18
-61 0 -111 2 -111 5 0 2 31 66 68 142 38 76 73 153 80 171 6 17 15 32 20 32 4
0 16 -71 26 -157z"/>
<path d="M1310 1316 c0 -13 16 -156 35 -317 20 -162 38 -319 41 -349 10 -104
8 -101 66 -98 l51 3 198 385 c109 212 198 388 199 393 0 4 -23 7 -50 7 l-50 0
-126 -257 c-70 -142 -142 -291 -160 -332 -19 -40 -36 -72 -38 -70 -3 2 -18
132 -35 289 -17 157 -34 304 -37 328 l-6 42 -44 0 c-40 0 -44 -2 -44 -24z"/>
<path d="M2000 1337 c0 -2 -31 -176 -70 -386 -38 -211 -70 -387 -70 -392 0 -5
20 -9 44 -9 40 0 45 2 50 27 26 132 136 735 136 747 0 12 -11 16 -45 16 -25 0
-45 -1 -45 -3z"/>
<path d="M2266 971 c-103 -204 -191 -382 -196 -396 -9 -25 -9 -25 38 -25 l48
0 58 125 59 125 133 0 c154 0 136 16 154 -139 6 -52 13 -98 16 -103 3 -4 25
-8 50 -8 l45 0 -6 33 c-3 17 -23 171 -46 342 -22 171 -43 333 -47 360 l-7 50
-57 3 -56 3 -186 -370z m244 103 c28 -217 39 -194 -86 -194 -102 0 -105 1 -99
21 12 37 158 330 162 325 2 -2 13 -71 23 -152z"/>
<path d="M3150 1328 c-148 -26 -280 -169 -311 -336 -16 -85 -7 -217 19 -273
26 -56 95 -122 148 -140 22 -7 77 -13 126 -13 103 1 175 24 183 57 5 25 55
329 55 337 0 3 -46 5 -102 5 l-102 0 -10 -27 c-5 -15 -7 -31 -3 -35 4 -3 34
-7 67 -8 33 -1 62 -4 65 -6 2 -3 -2 -34 -10 -69 -7 -36 -17 -86 -20 -112 -8
-60 -27 -72 -120 -72 -127 0 -194 55 -220 182 -14 64 -14 80 0 144 40 192 161
308 322 308 30 0 73 -5 95 -12 43 -13 56 -6 60 31 3 21 -3 26 -42 38 -47 14
-124 15 -200 1z"/>
<path d="M3645 1334 c-11 -3 -30 -7 -41 -9 -19 -4 -24 -18 -39 -112 -10 -60
-21 -126 -25 -148 -26 -140 -80 -459 -80 -475 0 -16 7 -20 34 -20 l33 0 16 88
c8 48 21 121 28 162 7 41 17 78 23 82 19 13 96 9 126 -7 41 -21 56 -63 63
-180 10 -139 12 -145 53 -145 l34 0 -5 83 c-13 185 -26 237 -68 269 -21 16
-21 17 -2 24 38 13 87 57 116 102 49 78 39 182 -24 240 -41 39 -168 63 -242
46z m188 -102 c26 -26 31 -39 31 -79 0 -60 -31 -119 -80 -152 -43 -30 -184
-44 -184 -19 0 13 35 217 45 265 6 25 35 31 108 22 36 -4 56 -13 80 -37z"/>
<path d="M4775 1333 c-22 -2 -44 -8 -48 -12 -8 -8 -114 -607 -124 -704 l-6
-49 154 4 c151 3 156 4 221 36 145 71 232 229 232 422 -1 101 -24 168 -80 225
-24 25 -49 43 -54 40 -6 -3 -10 -2 -10 4 0 23 -186 46 -285 34z m257 -98 c64
-46 90 -100 92 -193 2 -110 -19 -190 -68 -264 -51 -79 -105 -115 -198 -134
-63 -14 -161 -14 -174 -1 -5 5 71 458 96 575 l12 54 98 -4 c91 -3 102 -5 142
-33z"/>
<path d="M4281 1293 c-10 -21 -57 -121 -104 -223 -47 -102 -108 -234 -137
-295 -55 -115 -90 -194 -90 -201 0 -2 17 -4 38 -4 l37 0 51 118 51 117 129 0
129 0 14 -117 14 -118 38 0 c45 0 44 -7 25 120 -8 52 -19 138 -26 190 -6 52
-15 118 -20 145 -5 28 -14 107 -21 178 l-13 127 -48 0 c-45 0 -49 -2 -67 -37z
m77 -228 c11 -93 18 -173 16 -177 -7 -11 -204 -10 -204 1 0 12 24 68 65 153
20 40 33 78 30 86 -2 7 -1 11 4 7 5 -3 20 22 32 55 13 32 27 56 31 52 3 -4 15
-83 26 -177z"/>
<path d="M5381 1258 c-6 -40 -16 -95 -21 -123 -17 -93 -71 -409 -84 -488 l-13
-77 181 2 181 3 3 32 3 33 -141 0 -141 0 6 33 c35 199 45 250 49 254 5 5 47 8
179 11 l77 2 0 30 0 30 -120 0 -120 0 0 26 c0 42 31 218 41 230 5 6 48 11 101
12 180 1 165 -1 170 32 l5 30 -173 0 -172 0 -11 -72z"/>
</g>
</svg>
