<?xml version="1.0" standalone="no"?>
<!DOCTYPE svg PUBLIC "-//W3C//DTD SVG 20010904//EN"
 "http://www.w3.org/TR/2001/REC-SVG-20010904/DTD/svg10.dtd">
<svg version="1.0" xmlns="http://www.w3.org/2000/svg"
 width="520.000000pt" height="228.000000pt" viewBox="0 0 520.000000 228.000000"
 preserveAspectRatio="xMidYMid meet">

<g transform="translate(0.000000,228.000000) scale(0.100000,-0.100000)"
fill="#000000" stroke="none">
<path d="M2038 2149 c-805 -39 -1523 -290 -1833 -639 -64 -72 -111 -147 -142
-228 -23 -57 -27 -82 -27 -172 1 -117 21 -188 85 -297 101 -171 384 -377 674
-491 106 -42 280 -102 296 -102 5 0 9 44 9 100 l0 100 -43 17 c-271 108 -520
288 -626 453 -199 308 -57 642 377 888 413 233 988 362 1626 362 115 0 207 2
205 4 -10 9 -450 13 -601 5z"/>
<path d="M3642 2044 l3 -96 135 -47 c230 -81 381 -153 530 -255 93 -63 214
-185 257 -257 35 -59 63 -152 63 -209 0 -57 -28 -150 -63 -210 -47 -79 -179
-209 -280 -275 -166 -108 -416 -216 -669 -289 -390 -113 -794 -176 -1278 -200
l-245 -12 115 -7 c218 -14 702 14 1028 58 660 91 1259 319 1530 584 253 247
266 513 38 759 -195 209 -527 380 -968 500 -79 22 -156 42 -171 46 l-28 7 3
-97z"/>
<path d="M1447 1610 c-15 -12 -52 -65 -83 -118 -32 -53 -135 -229 -231 -389
-180 -305 -195 -340 -152 -363 48 -26 53 -19 290 380 125 211 236 390 245 397
13 10 81 13 269 13 254 0 275 3 275 37 0 8 -11 25 -25 38 l-24 25 -269 0
c-256 0 -271 -1 -295 -20z"/>
<path d="M2177 1608 c-19 -17 -410 -674 -493 -827 -15 -29 -9 -47 19 -55 12
-3 145 -6 295 -6 291 0 318 4 369 52 50 46 42 48 -242 48 -217 0 -267 3 -271
14 -4 11 378 660 407 691 6 6 96 12 207 15 176 4 197 7 200 22 2 10 -8 29 -22
43 l-25 25 -210 0 c-204 0 -211 -1 -234 -22z"/>
<path d="M2990 1613 c-62 -10 -175 -45 -220 -68 -51 -26 -80 -57 -80 -87 0
-25 23 -23 116 11 124 45 225 64 313 59 205 -12 303 -162 219 -338 -12 -26
-61 -85 -117 -140 -106 -106 -187 -153 -350 -204 -94 -30 -234 -46 -245 -28
-3 6 52 116 123 244 140 250 142 260 63 239 -21 -6 -48 -21 -59 -33 -32 -34
-293 -489 -293 -510 0 -9 12 -25 26 -34 22 -15 43 -16 152 -11 249 13 468 86
622 208 63 50 155 173 193 257 88 195 1 372 -210 426 -56 15 -191 20 -253 9z"/>
<path d="M1538 1498 c-18 -14 -178 -274 -178 -289 0 -5 79 -9 195 -9 l195 0 0
29 c0 41 -32 61 -96 61 -28 0 -65 3 -82 6 l-31 6 20 39 c34 67 51 73 198 64
143 -7 193 1 241 41 50 42 41 50 -67 57 -168 12 -377 8 -395 -5z"/>
<path d="M2186 1366 c-47 -79 -86 -149 -86 -155 0 -8 60 -11 203 -9 l202 3 -3
25 c-5 50 -34 65 -133 69 -100 3 -98 1 -54 70 l25 41 98 0 c88 0 104 3 153 28
38 19 54 33 54 47 0 19 -8 20 -186 23 l-186 2 -87 -144z"/>
<path d="M2935 1476 c-131 -35 -217 -68 -229 -89 -9 -15 -6 -22 14 -38 29 -25
44 -23 165 21 90 33 191 48 238 36 14 -3 39 -18 56 -32 27 -22 31 -33 31 -73
0 -60 -34 -115 -118 -193 -77 -71 -232 -151 -232 -120 0 4 20 42 45 84 24 42
52 95 61 118 16 40 16 43 -3 68 -11 15 -26 27 -34 27 -11 0 -258 -416 -259
-437 -1 -31 214 22 339 83 87 42 117 64 187 133 62 62 91 99 115 150 36 78 35
111 -6 181 -58 100 -191 129 -370 81z"/>
<path d="M1337 1165 c-23 -12 -268 -425 -260 -438 9 -16 89 -1 122 22 19 14
67 83 123 177 l91 154 106 0 c82 0 115 5 148 19 35 17 72 55 61 66 -9 9 -374
9 -391 0z"/>
<path d="M2051 1127 c-81 -122 -160 -260 -155 -268 3 -5 120 -9 260 -9 l254 0
0 23 c-1 59 -50 74 -242 76 -54 1 -98 5 -98 9 0 4 16 33 36 65 39 63 32 61
170 57 49 -1 108 3 131 9 51 14 93 46 93 72 0 18 -9 19 -207 19 l-208 0 -34
-53z"/>
<path d="M1523 423 c-30 -6 -63 -49 -63 -81 0 -37 26 -60 87 -78 53 -15 64
-29 41 -52 -17 -17 -42 -15 -70 7 -27 21 -68 18 -68 -4 0 -29 51 -55 107 -55
44 0 58 5 78 25 30 29 33 74 8 103 -10 12 -40 27 -68 35 -37 11 -50 19 -50 33
0 25 41 31 64 10 19 -18 61 -11 61 10 0 30 -76 58 -127 47z"/>
<path d="M1758 415 c-73 -41 -85 -172 -21 -231 28 -26 97 -33 134 -14 16 9 49
58 49 75 0 16 -56 2 -76 -20 -40 -44 -84 -10 -84 65 0 82 58 121 87 59 10 -21
18 -25 43 -21 26 4 30 8 24 26 -18 60 -100 92 -156 61z"/>
<path d="M1358 318 l-3 -103 -32 -3 c-27 -3 -33 -7 -33 -28 0 -22 4 -24 43
-24 75 0 82 11 85 144 l4 116 -31 0 -30 0 -3 -102z"/>
</g>
</svg>
